<svg xmlns="http://www.w3.org/2000/svg" version="1.1" xmlns:xlink="http://www.w3.org/1999/xlink" xmlns:svgjs="http://svgjs.com/svgjs" width="120" height="120" x="0" y="0" viewBox="0 0 496 496" style="enable-background:new 0 0 512 512" xml:space="preserve"><g><path d="M56 264h384v224H56z" style="" fill="#ECECEC" data-original="#ececec"></path><path d="M56 464h384v24H56z" style="" fill="#B6C1CE" data-original="#b6c1ce"></path><path d="M416 88H80L32 232v24c0 13.256 10.744 24 24 24s24-10.744 24-24c0 13.256 10.744 24 24 24s24-10.744 24-24c0 13.256 10.744 24 24 24s24-10.744 24-24c0 13.256 10.744 24 24 24s24-10.744 24-24c0 13.256 10.744 24 24 24s24-10.744 24-24c0 13.256 10.744 24 24 24s24-10.744 24-24c0 13.256 10.744 24 24 24s24-10.744 24-24c0 13.256 10.744 24 24 24s24-10.744 24-24c0 13.256 10.744 24 24 24s24-10.744 24-24v-24L416 88z" style="" fill="#FB5968" data-original="#fb5968"></path><path d="M56 280c13.256 0 24-10.744 24-24 0 13.256 10.744 24 24 24s24-10.744 24-24c0 13.256 10.744 24 24 24s24-10.744 24-24c0 13.256 10.744 24 24 24s24-10.744 24-24c0 13.256 10.744 24 24 24s24-10.744 24-24c0 13.256 10.744 24 24 24s24-10.744 24-24c0 13.256 10.744 24 24 24s24-10.744 24-24c0 13.256 10.744 24 24 24s24-10.744 24-24c0 13.256 10.744 24 24 24s24-10.744 24-24v-24H32v24c0 13.256 10.744 24 24 24z" style="" fill="#CD2C5A" data-original="#cd2c5a"></path><circle cx="248" cy="104" r="96" style="" fill="#FFEAA7" data-original="#ffeaa7"></circle><path d="M128 424c-.488 0-.944.112-1.424.144C123.312 414.768 114.488 408 104 408c-1.944 0-3.816.296-5.624.736C93.976 403.44 87.424 400 80 400s-13.976 3.44-18.376 8.736c-1.808-.44-3.68-.736-5.624-.736-10.488 0-19.312 6.768-22.576 16.144-.48-.032-.936-.144-1.424-.144-13.256 0-24 10.744-24 24v40h144v-40c0-13.256-10.744-24-24-24zM464 424c-.488 0-.944.112-1.424.144C459.312 414.768 450.488 408 440 408c-1.944 0-3.816.296-5.624.736C429.976 403.44 423.424 400 416 400s-13.976 3.44-18.376 8.736c-1.808-.44-3.68-.736-5.624-.736-10.488 0-19.312 6.768-22.576 16.144-.48-.032-.936-.144-1.424-.144-13.256 0-24 10.744-24 24v40h144v-40c0-13.256-10.744-24-24-24z" style="" fill="#92E0C0" data-original="#92e0c0"></path><path d="M344 456h144v32H344zM8 456h144v32H8z" style="" fill="#D3A06C" data-original="#d3a06c"></path><path d="M184 312h128v176H184z" style="" fill="#EABD8C" data-original="#eabd8c"></path><path d="M184 464h128v24H184z" style="" fill="#D3A06C" data-original="#d3a06c"></path><path d="M96 320h48v48H96zM352 320h48v48h-48z" style="" fill="#39C3FC" data-original="#39c3fc"></path><path d="M467.728 416.216c-4.296-7.576-11.36-13.048-19.728-15.192v-114.16c13.76-3.576 24-15.992 24-30.864v-25.296L421.768 80h-72.672C338.216 34.208 297.072 0 248 0s-90.216 34.208-101.096 80H74.232L24 230.704V256c0 14.872 10.24 27.288 24 30.864v114.16c-8.368 2.136-15.432 7.616-19.728 15.192C12.376 418.072 0 431.616 0 448v48h496v-48c0-16.384-12.376-29.928-28.272-31.784zm-12.712 10.56 1.968 5.648 5.976-.288c.456-.024.896-.08 1.04-.136 8.824 0 16 7.176 16 16H352c0-8.824 7.176-16 15.696-16l7.312.424 1.968-5.648C379.224 420.328 385.264 416 392 416c1.112 0 2.304.168 3.744.504l4.848 1.168 3.184-3.832c6.176-7.44 18.264-7.44 24.448 0l3.184 3.832 4.848-1.168c1.44-.336 2.632-.504 3.744-.504 6.736 0 12.776 4.328 15.016 10.776zM440 272c-8.824 0-16-7.176-16-16v-16h32v16c0 8.824-7.176 16-16 16zM208 112c-8.824 0-16-7.176-16-16 0-11.96 10.016-32 16-32s16 20.04 16 32c0 8.824-7.176 16-16 16zm9.576 91.44L216.432 224h-31.496l3.848-34.616c8.728 6.072 18.4 10.864 28.792 14.056zm89.64-14.056L311.064 224h-31.496l-1.144-20.56c10.392-3.192 20.064-7.984 28.792-14.056zM374.776 224 353.44 96h24.144l28.448 128h-31.256zm-16.216 0h-31.4l-5.216-46.976c9.888-10.008 17.688-22.04 22.896-35.368L358.56 224zm-95.968-17.144.952 17.144h-31.088l.952-17.144c4.784.672 9.624 1.144 14.592 1.144s9.808-.472 14.592-1.144zM168.84 224h-31.4l13.72-82.336c5.2 13.328 13.008 25.352 22.896 35.368L168.84 224zm-47.616 0H89.968l28.448-128h24.144l-21.336 128zM88 240h32v16c0 8.824-7.176 16-16 16s-16-7.176-16-16v-16zm48 0h32v16c0 8.824-7.176 16-16 16s-16-7.176-16-16v-16zm48 0h32v16c0 8.824-7.176 16-16 16s-16-7.176-16-16v-16zm48 0h32v16c0 8.824-7.176 16-16 16s-16-7.176-16-16v-16zm48 0h32v16c0 8.824-7.176 16-16 16s-16-7.176-16-16v-16zm48 0h32v16c0 8.824-7.176 16-16 16s-16-7.176-16-16v-16zm48 0h32v16c0 8.824-7.176 16-16 16s-16-7.176-16-16v-16zm76.904-16h-30.488L393.968 96h16.264l42.672 128zM248 16c48.52 0 88 39.48 88 88 0 30.816-15.952 57.936-40 73.664v-50.8c13.76-3.576 24-15.992 24-30.864V56h-16v40c0 5.896-3.24 11-8 13.776V56h-16v53.776c-4.76-2.776-8-7.88-8-13.776V56h-16v40c0 14.872 10.24 27.288 24 30.864v59.024c-9.936 3.896-20.704 6.112-32 6.112s-22.064-2.216-32-6.112v-59.024c13.76-3.576 24-15.992 24-30.864 0-16.488-12.464-48-32-48s-32 31.512-32 48c0 14.872 10.24 27.288 24 30.864v50.8c-24.048-15.728-40-42.848-40-73.664 0-48.52 39.48-88 88-88zM85.768 96h16.264L73.584 224H43.096L85.768 96zM40 256v-16h32v16c0 8.824-7.176 16-16 16s-16-7.176-16-16zm-8.304 176 7.312.424 1.968-5.648C43.224 420.328 49.264 416 56 416c1.112 0 2.304.168 3.744.504l4.848 1.168 3.184-3.832c6.176-7.44 18.264-7.44 24.448 0l3.184 3.832 4.848-1.168c1.44-.336 2.632-.504 3.744-.504 6.736 0 12.776 4.328 15.016 10.776l1.968 5.648 5.976-.288c.456-.024.896-.08 1.04-.136 8.824 0 16 7.176 16 16H16c0-8.824 7.176-16 15.696-16zM16 480v-16h128v16H16zm288 0H192V320h112v160zm32 0h-16V304H176v176h-16v-32c0-16.384-12.376-29.928-28.272-31.784-6.056-10.68-17.56-17.312-30.552-16.08-10.072-9.008-25.608-10.2-37.176-3.656v-109.6c6.272-1.632 11.84-5.024 16-9.744C85.864 283.8 94.456 288 104 288s18.136-4.2 24-10.856C133.864 283.8 142.456 288 152 288s18.136-4.2 24-10.856C181.864 283.8 190.456 288 200 288s18.136-4.2 24-10.856C229.864 283.8 238.456 288 248 288s18.136-4.2 24-10.856C277.864 283.8 286.456 288 296 288s18.136-4.2 24-10.856C325.864 283.8 334.456 288 344 288s18.136-4.2 24-10.856C373.864 283.8 382.456 288 392 288s18.136-4.2 24-10.856c4.16 4.72 9.728 8.12 16 9.744v109.6c-11.568-6.552-27.104-5.36-37.176 3.656-12.96-1.248-24.504 5.4-30.552 16.08C348.376 418.072 336 431.616 336 448v32zm16 0v-16h128v16H352z" fill="#000000" data-original="#000000"></path><path d="M208 392h16v16h-16zM88 376h64v-64H88v64zm16-48h32v32h-32v-32zM408 312h-64v64h64v-64zm-16 48h-32v-32h32v32z" fill="#000000" data-original="#000000"></path></g></svg>